<svg xmlns="http://www.w3.org/2000/svg" viewBox="0 0 150.54 118.64"><path fill="#6181c1" d="M0 35.42h77.84v29.24H0z"/><path fill="#ee7071" d="M0 0h122.33v29.24H0z"/><path d="M7.12 88H3.65v12.08H0V70.84h7.12c3.73 0 5.88 2 5.88 6V82c0 4-2.15 6-5.88 6zm2.19-11.32c0-1.67-.61-2.55-2.15-2.55H3.65v10.72h3.51c1.54 0 2.15-1 2.15-2.59zm16.21 23.41l-1.19-6.72h-5.18l-1.23 6.72h-3.47l5.49-29.25h3.86l5.45 29.25zM21.78 77.6l-2.06 12.52h4zm16.65 10.15h-2v12.34h-3.67V70.84h7.12c3.73 0 5.84 1.89 5.84 5.93v5c0 2.55-1.1 4.66-3.56 5.45l4 12.87H42.2zm1-3.17c1.67 0 2.59-1 2.59-2.81v-5.18c0-1.49-.61-2.46-2.19-2.46h-3.42v10.45zm10.68 15.51V70.84h3.64V96.7h7.6v3.39zm24.63 0l-1.18-6.72h-5.18l-1.23 6.72h-3.47l5.49-29.25H73l5.45 29.25zM71 77.6l-2 12.52h4zm26.32 22.49V77.65l-1 5.31L93 100.09h-3.5L86.16 83l-1-5.31v22.44H82V70.84h5.18L90.42 89l1 5.31.89-5.31 3.25-18.14h5.09v29.25zm8.47 0V70.84h11.46v3.34h-7.81v9.09h5.66v3.2h-5.66v10.28h7.81v3.34zm22.84-25.87v25.87H125V74.22h-5v-3.38h13.5v3.38zm14.22 13.53h-2v12.34h-3.64V70.84h7.11c3.74 0 5.84 1.89 5.84 5.93v5c0 2.55-1.09 4.66-3.55 5.45l3.95 12.87h-3.91zm1.06-3.17c1.67 0 2.59-1 2.59-2.81v-5.18c0-1.49-.62-2.46-2.2-2.46h-3.47v10.45zM3.49 116.36a1.58 1.58 0 0 1-1.58-1l-.19.93h-.8v-9.68h1.21v3.75a1.74 1.74 0 0 1 1.57-1c1 0 1.54.85 1.54 2v3.07a1.76 1.76 0 0 1-1.75 1.93zm.56-4.78c0-.83-.32-1.2-.92-1.2a1 1 0 0 0-1 1.12v2.77a1 1 0 0 0 1 1.12c.6 0 .95-.37.95-1.19zm4.69 5.12c-.3 1.2-.61 1.94-1.86 1.94h-.45v-1h.35c.6 0 .73-.2.84-.64l.12-.58-1.8-7h1.22l.84 3.79.29 1.52.31-1.52.81-3.77h1.21zm7.97-4.34h-1.44v3.88h-1.36v-9.68h2.8A2 2 0 0 1 19 108.8v1.34a2 2 0 0 1-2.29 2.22zm.89-3.6c0-.64-.23-1-.87-1h-1.46v3.43h1.46c.64 0 .87-.37.87-1zm6.33 7.48l-.51-2.37h-2.1l-.51 2.37h-1.33l2.19-9.68h1.46l2.19 9.68zm-1.56-7.51l-.8 4h1.6zm6.44 3.47H28v4h-1.4v-9.68h2.79c1.58 0 2.29.79 2.29 2.17V110a2 2 0 0 1-1.47 2.1l1.58 4.18H30.3zm.44-1.13c.68 0 1-.38 1-1.09v-1.28c0-.55-.22-1-.87-1H28v3.32zm4.07 5.17v-9.68h1.37V115h3.07v1.25zm9.68 0l-.51-2.37H40.4l-.51 2.37h-1.33l2.19-9.68h1.46l2.19 9.68zm-1.56-7.51l-.8 4h1.6zm10.23 7.51v-7.54l-.39 1.84-1.28 5.7h-1.39l-1.3-5.7-.41-1.84v7.54h-1.22v-9.68h1.92l1.33 6 .39 1.85.39-1.86 1.3-6h1.91v9.68zm3.2 0v-9.68h4.51v1.25h-3.14v2.76h2.27v1.2h-2.27V115h3.14v1.25zm8.87-8.41v8.41h-1.38v-8.41h-2v-1.27h5.35v1.27zm3.34 8.41v-9.68h4.5v1.25h-3.14v2.76h2.27v1.2h-2.27V115h3.14v1.25zm8.3-4.04h-.83v4h-1.38v-9.68H76c1.57 0 2.28.79 2.28 2.17V110a2 2 0 0 1-1.47 2.1l1.59 4.18h-1.5zm.43-1.13a1 1 0 0 0 1-1.09v-1.28c0-.55-.22-1-.88-1h-1.38v3.32z" fill="#274d98"/></svg>
