<svg xmlns="http://www.w3.org/2000/svg" viewBox="0 0 165.8 100.1"><path fill="#7380be" d="M0 35.4h77.8v29.2H0z"/><path fill="#efcb36" d="M0 0h122.3v29.2H0z"/><path d="M6.7 88H3.3v12.1H-.4V70.8h7.1c3.7 0 5.9 2 5.9 6V82c0 4-2.1 6-5.9 6zm2.2-11.3c0-1.7-.6-2.6-2.2-2.6H3.3v10.7h3.5c1.5 0 2.1-1 2.1-2.6v-5.5zm16.2 23.4l-1.2-6.7h-5.2l-1.2 6.7H14l5.5-29.3h3.9l5.5 29.3h-3.8zm-3.7-22.5l-2.1 12.5h4l-1.9-12.5zM38 87.7h-2V100h-3.7V70.8h7.1c3.7 0 5.8 1.9 5.8 5.9v5c0 2.6-1.1 4.7-3.6 5.4l4 12.9h-4L38 87.7zm1-3.1c1.7 0 2.6-1 2.6-2.8v-5.2c0-1.5-.6-2.5-2.2-2.5H36v10.5h3zm10.7 15.5V70.8h3.6v25.9H61v3.4H49.7zm24.7 0l-1.2-6.7H68l-1.2 6.7h-3.5l5.5-29.3h3.8l5.4 29.3h-3.6zm-3.8-22.5l-2 12.5h4l-2-12.5zm26.3 22.5V77.6l-1 5.3-3.3 17.1h-3.5l-3.3-17-1-5.3v22.4h-3.2V70.8h5.2L90 89l1 5.3.9-5.3 3.3-18.1h5.1v29.3l-3.4-.1zm8.5 0V70.8h11.5v3.3h-7.8v9.1h5.7v3.2h-5.7v10.3h7.8v3.3h-11.5zm22.8-25.9v25.9h-3.6V74.2h-5v-3.4h13.5v3.4h-4.9zm16.9 25.9l-1.2-6.7h-5.2l-1.2 6.7H134l5.5-29.3h3.9l5.4 29.3h-3.7zm-3.7-22.5l-2.1 12.5h4l-1.9-12.5zM158 87.7h-2V100h-3.6V70.8h7.1c3.7 0 5.8 1.9 5.8 5.9v5c0 2.6-1.1 4.7-3.6 5.4l4 12.9h-3.9L158 87.7zm1-3.1c1.7 0 2.6-1 2.6-2.8v-5.2c0-1.5-.6-2.5-2.2-2.5h-3.5v10.5h3.1z" fill="#283480"/></svg>
