<?xml version="1.0" encoding="utf-8"?>
<!-- Generator: Adobe Illustrator 22.1.0, SVG Export Plug-In . SVG Version: 6.00 Build 0)  -->
<svg version="1.1" id="Layer_1" xmlns="http://www.w3.org/2000/svg" xmlns:xlink="http://www.w3.org/1999/xlink" x="0px" y="0px"
	 viewBox="0 0 166.1 118.6" style="enable-background:new 0 0 166.1 118.6;" xml:space="preserve">
<style type="text/css">
	.st0{fill:#6180BF;}
	.st1{fill:#ED7070;}
	.st2{fill:#274D97;}
</style>
<title>parlametar_logo</title>
<g>
	<g>
		<rect x="1" y="35.6" class="st0" width="77.8" height="29.2"/>
		<rect x="1" y="0.2" class="st1" width="122.3" height="29.2"/>
	</g>
	<g>
		<g>
			<path class="st2" d="M7,100.8c-4.1,0-6.8-2.7-6.8-6.5v-2.7h3.6v2.3c0,2.5,1.1,3.9,3.2,3.9c2.2,0,3.2-1.4,3.2-3.4
				c0-2.7-1.1-4.7-4.1-7.4c-2.7-2.4-5.6-5.8-5.6-9.6c0-3.9,2.3-6.9,6.6-6.9c4,0,6.5,2.7,6.5,6.6v2.7h-3.5v-2.3c0-2.2-1-3.8-3.1-3.8
				c-1.9,0-2.9,1.1-2.9,3c0,2.9,1.1,4.5,4.6,7.6c3.4,3,5.1,5.8,5.1,9.4C13.8,98.5,10.6,100.8,7,100.8z"/>
			<path class="st2" d="M18,100.3V71.1h11.5v3.3h-7.8v9.1h5.7v3.2h-5.7V97h7.8v3.3H18z"/>
			<path class="st2" d="M39.2,100.8c-4.1,0-6.4-2.5-6.4-6.6v-5.6h3.5v5.6c0,2.2,0.9,3.3,2.9,3.3c1.9,0,2.7-1.1,2.7-3.3V71.1h3.6
				v22.9C45.5,98,43.5,100.8,39.2,100.8z"/>
			<path class="st2" d="M65.9,100.3V77.9l-1,5.3l-3.3,17.1H58l-3.3-17.1l-1-5.3v22.4h-3.2V71.1h5.2L59,89.2l1,5.3l0.9-5.4l3.3-18.1
				h5.1v29.2H65.9z"/>
			<path class="st2" d="M80.9,100.8c-4.5,0-6.9-3-6.9-7.2V77.7c0-4.1,2.4-7.2,6.9-7.2s6.9,3.1,6.9,7.2v15.9
				C87.8,97.8,85.4,100.8,80.9,100.8z M84.2,77.3c0-2-1.1-3.5-3.3-3.5c-2.2,0-3.3,1.5-3.3,3.5V94c0,2,1.1,3.5,3.3,3.5
				c2.2,0,3.3-1.4,3.3-3.5V77.3z"/>
			<path class="st2" d="M108,100.3V77.9l-1,5.3l-3.3,17.1h-3.5l-3.3-17.1l-1-5.3v22.4h-3.2V71.1h5.2l3.3,18.2l1,5.3l0.9-5.4
				l3.3-18.1h5.1v29.2H108z"/>
			<path class="st2" d="M116.5,100.3V71.1h11.5v3.3h-7.8v9.1h5.7v3.2h-5.7V97h7.8v3.3H116.5z"/>
			<path class="st2" d="M139.3,74.4v25.9h-3.6V74.4h-5v-3.4h13.5v3.4H139.3z"/>
			<path class="st2" d="M153.5,88h-2v12.3h-3.6V71.1h7.1c3.7,0,5.8,1.9,5.8,5.9v5c0,2.5-1.1,4.7-3.6,5.4c0,0,4,12.9,4,12.9h-3.9
				L153.5,88z M154.6,84.8c1.7,0,2.6-1,2.6-2.8v-5.2c0-1.5-0.6-2.5-2.2-2.5h-3.5v10.5H154.6z"/>
			<path class="st2" d="M4.5,116.6c-0.6,0-1.3-0.3-1.6-1l-0.2,0.9H2v-9.7h1.2v3.8c0.3-0.6,0.8-1,1.6-1c1,0,1.5,0.8,1.5,2v3.1
				C6.3,115.8,5.6,116.6,4.5,116.6z M5.1,111.8c0-0.8-0.3-1.2-0.9-1.2c-0.6,0-1,0.4-1,1.1v2.8c0,0.7,0.5,1.1,1,1.1
				c0.6,0,0.9-0.4,0.9-1.2V111.8z"/>
			<path class="st2" d="M9.8,116.9c-0.3,1.2-0.6,1.9-1.9,1.9H7.5v-1h0.3c0.6,0,0.7-0.2,0.8-0.6l0.1-0.6l-1.8-7h1.2l0.8,3.8l0.3,1.5
				l0.3-1.5l0.8-3.8h1.2L9.8,116.9z"/>
			<path class="st2" d="M17.8,112.6h-1.4v3.9h-1.4v-9.7h2.8c1.6,0,2.3,0.8,2.3,2.2v1.3C20,111.7,19.3,112.6,17.8,112.6z M18.6,109
				c0-0.6-0.2-1-0.9-1h-1.5v3.4h1.5c0.6,0,0.9-0.4,0.9-1V109z"/>
			<path class="st2" d="M25,116.5l-0.5-2.4h-2.1l-0.5,2.4h-1.3l2.2-9.7h1.5l2.2,9.7H25z M23.4,109l-0.8,4h1.6L23.4,109z"/>
			<path class="st2" d="M29.9,112.4H29v4h-1.4v-9.7h2.8c1.6,0,2.3,0.8,2.3,2.2v1.2c0,1-0.5,1.8-1.5,2.1c0,0,1.6,4.2,1.6,4.2h-1.5
				L29.9,112.4z M30.3,111.3c0.7,0,1-0.4,1-1.1v-1.3c0-0.6-0.2-0.9-0.9-0.9H29v3.3H30.3z"/>
			<path class="st2" d="M34.4,116.5v-9.7h1.4v8.4h3.1v1.3H34.4z"/>
			<path class="st2" d="M44,116.5l-0.5-2.4h-2.1l-0.5,2.4h-1.3l2.2-9.7h1.5l2.2,9.7H44z M42.5,109l-0.8,4h1.6L42.5,109z"/>
			<path class="st2" d="M52.7,116.5v-7.5l-0.4,1.8l-1.3,5.7h-1.4l-1.3-5.7l-0.4-1.8v7.5h-1.2v-9.7h1.9l1.3,6l0.4,1.8l0.4-1.9l1.3-6
				H54v9.7H52.7z"/>
			<path class="st2" d="M55.9,116.5v-9.7h4.5v1.3h-3.1v2.8h2.3v1.2h-2.3v3.2h3.1v1.3H55.9z"/>
			<path class="st2" d="M64.8,108v8.4h-1.4V108h-2v-1.3h5.4v1.3H64.8z"/>
			<path class="st2" d="M68.1,116.5v-9.7h4.5v1.3h-3.1v2.8h2.3v1.2h-2.3v3.2h3.1v1.3H68.1z"/>
			<path class="st2" d="M76.4,112.4h-0.8v4h-1.4v-9.7H77c1.6,0,2.3,0.8,2.3,2.2v1.2c0,1-0.5,1.8-1.5,2.1c0,0,1.6,4.2,1.6,4.2h-1.5
				L76.4,112.4z M76.9,111.3c0.7,0,1-0.4,1-1.1v-1.3c0-0.6-0.2-0.9-0.9-0.9h-1.4v3.3H76.9z"/>
		</g>
	</g>
</g>
</svg>
